<svg width="128" height="128" viewBox="0 0 128 128" fill="none" xmlns="http://www.w3.org/2000/svg">
<rect width="128" height="128" fill="#0A0A0A"/>
<path fill-rule="evenodd" clip-rule="evenodd" d="M79.1646 34.2205C79.7957 32.6427 79.0282 30.852 77.4505 30.2209C75.8726 29.5898 74.082 30.3572 73.4508 31.935L48.8354 93.4734C48.2043 95.0512 48.9718 96.842 50.5495 97.4728C52.1274 98.1041 53.918 97.3368 54.5492 95.7589L79.1646 34.2205ZM41.5603 49.3636C42.762 50.5652 42.762 52.5134 41.5603 53.715L31.4284 63.847L41.5603 73.979C42.762 75.1806 42.762 77.1288 41.5603 78.3304C40.3587 79.5318 38.4105 79.5318 37.2089 78.3304L24.9012 66.0227C23.6996 64.8211 23.6996 62.8729 24.9012 61.6713L37.2089 49.3636C38.4105 48.162 40.3587 48.162 41.5603 49.3636ZM86.4394 49.3636C87.6412 48.162 89.5895 48.162 90.7914 49.3636L103.099 61.6713C104.3 62.8729 104.3 64.8211 103.099 66.0227L90.7914 78.3304C89.5895 79.5318 87.6412 79.5318 86.4394 78.3304C85.2382 77.1288 85.2382 75.1806 86.4394 73.979L96.5717 63.847L86.4394 53.715C85.2382 52.5134 85.2382 50.5652 86.4394 49.3636Z" fill="#FAFAFA"/>
</svg>
